# xmcd
#
# Track frame offsets: 
#        150
#        16269
#        29452
#        48065
#        72458
#        88530
#        120219
#        135906
#        149157
#        162913
#        178019
#        193966
#        214690
#        227475
#
# Disc length: 3248 seconds
#
# Revision: 2
# Processed by: cddbd v1.5.2PL0 Copyright (c) Steve Scherf et al.
# Submitted via: ExactAudioCopyFreeDBPlugin 1.0
#
DISCID=bc0cae0e
DTITLE=Ike and Tina Turner - The Collection [Entertain Me Europe]
DYEAR=2008
DGENRE=Rhythm and Blues
TTITLE0=River Deep, Mountain High (version 1)
TTITLE1=Yo Yo
TTITLE2=Don't Look Back
TTITLE3=A Fool for You
TTITLE4=Livin' for the City
TTITLE5=Proud Mary (version 1)
TTITLE6=Do the Chicken
TTITLE7=High Heel Sneakers
TTITLE8=Be My Love
TTITLE9=Tweedle Dee
TTITLE10=Why I Sing the Blues
TTITLE11=You Paid Me Back with My Own Coins
TTITLE12=After Hours
TTITLE13=No More Lovin'
EXTD=
EXTT0=
EXTT1=
EXTT2=
EXTT3=
EXTT4=
EXTT5=
EXTT6=
EXTT7=
EXTT8=
EXTT9=
EXTT10=
EXTT11=
EXTT12=
EXTT13=
PLAYORDER=
